<svg width="51" height="51" viewBox="0 0 51 51" fill="none" xmlns="http://www.w3.org/2000/svg">
<path d="M16.75 4.41675H34.25C40.9166 4.41675 46.3333 9.83342 46.3333 16.5001V34.0001C46.3333 37.2048 45.0602 40.2782 42.7942 42.5443C40.5281 44.8104 37.4547 46.0834 34.25 46.0834H16.75C10.0833 46.0834 4.66663 40.6668 4.66663 34.0001V16.5001C4.66663 13.2954 5.93969 10.2219 8.20575 7.95587C10.4718 5.68981 13.5453 4.41675 16.75 4.41675ZM16.3333 8.58342C14.3442 8.58342 12.4365 9.37359 11.03 10.7801C9.62347 12.1866 8.83329 14.0943 8.83329 16.0834V34.4167C8.83329 38.5626 12.1875 41.9168 16.3333 41.9168H34.6666C36.6558 41.9168 38.5634 41.1266 39.9699 39.7201C41.3765 38.3135 42.1666 36.4059 42.1666 34.4167V16.0834C42.1666 11.9376 38.8125 8.58342 34.6666 8.58342H16.3333ZM36.4375 11.7084C37.1281 11.7084 37.7905 11.9828 38.2789 12.4712C38.7673 12.9595 39.0416 13.6219 39.0416 14.3126C39.0416 15.0033 38.7673 15.6656 38.2789 16.154C37.7905 16.6424 37.1281 16.9167 36.4375 16.9167C35.7468 16.9167 35.0844 16.6424 34.596 16.154C34.1077 15.6656 33.8333 15.0033 33.8333 14.3126C33.8333 13.6219 34.1077 12.9595 34.596 12.4712C35.0844 11.9828 35.7468 11.7084 36.4375 11.7084ZM25.5 14.8334C28.2626 14.8334 30.9122 15.9309 32.8657 17.8844C34.8192 19.8379 35.9166 22.4874 35.9166 25.2501C35.9166 28.0128 34.8192 30.6623 32.8657 32.6158C30.9122 34.5693 28.2626 35.6667 25.5 35.6667C22.7373 35.6667 20.0878 34.5693 18.1343 32.6158C16.1808 30.6623 15.0833 28.0128 15.0833 25.2501C15.0833 22.4874 16.1808 19.8379 18.1343 17.8844C20.0878 15.9309 22.7373 14.8334 25.5 14.8334ZM25.5 19.0001C23.8424 19.0001 22.2526 19.6586 21.0805 20.8307C19.9084 22.0028 19.25 23.5925 19.25 25.2501C19.25 26.9077 19.9084 28.4974 21.0805 29.6695C22.2526 30.8416 23.8424 31.5001 25.5 31.5001C27.1576 31.5001 28.7473 30.8416 29.9194 29.6695C31.0915 28.4974 31.75 26.9077 31.75 25.2501C31.75 23.5925 31.0915 22.0028 29.9194 20.8307C28.7473 19.6586 27.1576 19.0001 25.5 19.0001Z" fill="white"/>
</svg>
