<svg width="51" height="51" viewBox="0 0 51 51" fill="none" xmlns="http://www.w3.org/2000/svg">
<path d="M25.5834 4.41662C14.2084 4.41662 4.93754 13.6874 4.93754 25.0624C4.93754 28.7083 5.89587 32.25 7.68754 35.375L4.77087 46.0833L15.7084 43.2083C18.7292 44.8541 22.125 45.7291 25.5834 45.7291C36.9584 45.7291 46.2292 36.4583 46.2292 25.0833C46.2292 19.5624 44.0834 14.3749 40.1875 10.4791C38.2773 8.55017 36.0022 7.02071 33.4949 5.97987C30.9875 4.93903 28.2981 4.40762 25.5834 4.41662ZM25.6042 7.89578C30.1875 7.89578 34.4792 9.68745 37.7292 12.9374C39.3238 14.5323 40.588 16.426 41.4496 18.5102C42.3111 20.5944 42.7531 22.8281 42.75 25.0833C42.75 34.5416 35.0417 42.2291 25.5834 42.2291C22.5 42.2291 19.4792 41.4166 16.8542 39.8333L16.2292 39.4791L9.72921 41.1874L11.4584 34.8541L11.0417 34.1875C9.32201 31.4549 8.41185 28.2911 8.41671 25.0624C8.43754 15.6041 16.125 7.89578 25.6042 7.89578ZM18.2709 15.5208C17.9375 15.5208 17.375 15.6458 16.8959 16.1666C16.4375 16.6874 15.0834 17.9583 15.0834 20.4791C15.0834 23.0208 16.9375 25.4583 17.1667 25.8125C17.4584 26.1666 20.8334 31.375 26.0209 33.5833C27.25 34.1458 28.2084 34.4583 28.9584 34.6875C30.1875 35.0833 31.3125 35.0208 32.2084 34.8958C33.2084 34.7499 35.25 33.6458 35.6875 32.4374C36.125 31.2291 36.125 30.2083 36 29.9791C35.8542 29.7708 35.5209 29.6458 35 29.4166C34.4792 29.125 31.9375 27.875 31.4792 27.7083C31 27.5416 30.7084 27.4583 30.3125 27.9583C29.9792 28.4791 28.9792 29.6458 28.6875 29.9791C28.375 30.3333 28.0834 30.375 27.5834 30.125C27.0417 29.8541 25.375 29.3124 23.4167 27.5624C21.875 26.1874 20.8542 24.5 20.5417 23.9791C20.2917 23.4791 20.5209 23.1666 20.7709 22.9375C21 22.7083 21.3334 22.3333 21.5417 22.0208C21.8125 21.7291 21.8959 21.5 22.0625 21.1666C22.2292 20.8125 22.1459 20.5208 22.0209 20.2708C21.8959 20.0416 20.8542 17.4583 20.4167 16.4374C20 15.4374 19.5834 15.5624 19.25 15.5416C18.9584 15.5416 18.625 15.5208 18.2709 15.5208Z" fill="white"/>
</svg>
